<?xml version="1.0" standalone="no"?>
<!DOCTYPE svg PUBLIC "-//W3C//DTD SVG 20010904//EN"
 "http://www.w3.org/TR/2001/REC-SVG-20010904/DTD/svg10.dtd">
<svg version="1.0" xmlns="http://www.w3.org/2000/svg"
 width="512.000000pt" height="512.000000pt" viewBox="0 0 512.000000 512.000000"
 preserveAspectRatio="xMidYMid meet">
<metadata>
Created by potrace 1.11, written by Peter Selinger 2001-2013
</metadata>
<g transform="translate(0.000000,512.000000) scale(0.100000,-0.100000)"
fill="#000000" stroke="none">
<path d="M2455 4563 c-251 -93 -265 -101 -265 -145 0 -11 17 -44 38 -72 53
-70 90 -129 129 -208 18 -37 33 -69 33 -71 0 -6 -48 0 -104 13 -166 37 -465
30 -629 -16 -29 -8 -59 -16 -67 -18 -27 -7 -155 -60 -165 -68 -5 -5 -38 -26
-72 -48 -136 -86 -261 -240 -327 -402 -54 -134 -52 -146 19 -193 30 -21 55
-40 55 -43 0 -4 -21 -29 -45 -57 -25 -27 -45 -54 -45 -58 0 -5 -10 -23 -22
-40 -109 -152 -223 -419 -254 -594 -2 -13 -6 -35 -9 -50 -3 -16 -8 -46 -11
-68 -3 -22 -7 -53 -9 -70 -6 -40 -6 -251 0 -295 2 -19 7 -51 10 -70 3 -19 8
-49 10 -65 14 -114 90 -335 162 -470 18 -35 140 -221 163 -249 107 -131 181
-203 352 -342 10 -7 37 -26 60 -41 24 -15 45 -30 48 -33 26 -26 400 -208 400
-195 0 2 20 -4 45 -15 25 -11 46 -19 48 -19 1 1 22 -4 47 -11 63 -17 215 -47
280 -55 193 -24 454 -20 620 11 47 9 99 18 115 21 55 8 259 76 360 120 277
121 531 310 704 523 20 25 39 47 44 48 4 2 7 10 7 17 0 7 4 15 9 17 14 5 118
173 156 253 34 70 103 251 111 290 2 11 11 52 19 90 8 39 18 88 21 110 10 72
12 328 3 395 -15 112 -24 157 -34 190 -3 10 -8 28 -10 40 -2 11 -17 59 -32
106 -22 67 -33 89 -53 98 -14 7 -32 11 -40 9 -10 -2 -20 9 -29 32 -7 20 -28
63 -47 96 -30 54 -32 62 -19 76 33 32 14 74 -101 224 -43 56 -43 57 -24 74 11
10 20 30 20 45 0 45 -56 202 -101 280 -52 93 -49 89 -144 184 -116 117 -205
172 -379 232 -204 71 -518 79 -745 20 -46 -12 -51 -12 -47 3 17 54 23 173 12
229 -15 79 -65 194 -104 239 -30 34 -68 33 -167 -4z"/>
</g>
</svg>
